<svg width="32" height="32" xmlns="http://www.w3.org/2000/svg">

 <g>
  <title>background</title>
  <rect fill="#000000" id="canvas_background" height="34" width="34" y="-1" x="-1"/>
 </g>
 <g>
  <title fill="#eac700">Layer 1</title>
  <path id="star" fill="#eac700" d="m31.881541,12.057c-0.277,-0.799 -0.988,-1.384 -1.844,-1.511l-8.326,-1.238l-3.619,-7.514c-0.381,-0.789 -1.196,-1.294 -2.092,-1.294c-0.896,0 -1.711,0.505 -2.092,1.294l-3.619,7.514l-8.327,1.238c-0.855,0.127 -1.566,0.712 -1.842,1.511c-0.275,0.801 -0.067,1.683 0.537,2.285l6.102,6.092l-1.415,8.451c-0.144,0.851 0.225,1.705 0.948,2.203c0.397,0.273 0.864,0.412 1.331,0.412c0.384,0 0.769,-0.094 1.118,-0.281l7.259,-3.908l7.26,3.908c0.349,0.187 0.734,0.281 1.117,0.281c0.467,0 0.934,-0.139 1.332,-0.412c0.723,-0.498 1.09,-1.352 0.947,-2.203l-1.416,-8.451l6.104,-6.092c0.603,-0.603 0.81,-1.485 0.537,-2.285zm-8.293,6.806c-0.512,0.51 -0.744,1.229 -0.627,1.934l1.416,8.451l-7.26,-3.906c-0.348,-0.188 -0.732,-0.281 -1.118,-0.281c-0.384,0 -0.769,0.094 -1.117,0.281l-7.26,3.906l1.416,-8.451c0.118,-0.705 -0.114,-1.424 -0.626,-1.934l-6.102,-6.092l8.326,-1.24c0.761,-0.113 1.416,-0.589 1.743,-1.268l3.621,-7.512l3.62,7.513c0.328,0.679 0.982,1.154 1.742,1.268l8.328,1.24l-6.102,6.091z"/>
  <path d="m15.578691,3.93073c0,0 0.004368,0.04963 0,0.198263c-0.024794,0.843711 -0.144105,1.173746 -0.297395,2.379158c-0.131458,1.033736 -0.148697,2.230461 -0.148697,3.271342c0,0.743487 0,1.486974 0,2.081763c0,0.545224 0,0.842619 0,1.486974c0,0.446093 0,0.892184 0,1.288711c0,0.446093 -0.041974,0.942797 0,1.784369c0.024814,0.497511 0.173459,1.0889 0.198263,1.685236c0.024719,0.594276 0,0.892185 0.099132,1.140015l0,0.049564" id="svg_1" stroke-opacity="null" stroke-width="null" stroke="null" fill="#eac700"/>
  <polyline stroke-linecap="round" id="svg_2" points="12.356914038388794,16.272612630992406 12.356914038388794,16.272612630992406 " stroke-opacity="null" stroke-width="null" stroke="null" fill="none"/>
  <ellipse ry="6.765731" rx="5.89833" id="svg_3" cy="16.495659" cx="14.587375" stroke-opacity="null" stroke-width="null" stroke="null" fill="#eac700"/>
  <ellipse ry="0.446092" rx="1.486974" id="svg_4" cy="15.975218" cx="15.083033" stroke-opacity="null" stroke-width="null" stroke="null" fill="#eac700"/>
  <ellipse ry="3.24656" rx="8.72358" id="svg_5" cy="15.206948" cx="18.156112" stroke-opacity="null" stroke-width="null" stroke="null" fill="#eac700"/>
  <ellipse ry="3.915698" rx="7.434869" id="svg_6" cy="21.278758" cx="16.520441" stroke-opacity="null" stroke-width="null" stroke="null" fill="#eac700"/>
  <ellipse stroke="null" ry="3.59352" rx="14.96887" id="svg_7" cy="14.017369" cx="15.975217" stroke-opacity="null" stroke-width="null" fill="#eac700"/>
  <ellipse ry="10.582297" rx="1.8835" id="svg_8" cy="13.422579" cx="15.925651" stroke-opacity="null" stroke-width="null" stroke="null" fill="#eac700"/>
  <ellipse id="svg_9" cy="4.971611" cx="23.310955" stroke-opacity="null" stroke-width="null" stroke="null" fill="#eac700"/>
  <ellipse id="svg_10" cy="11.514296" cx="22.963994" stroke-opacity="null" stroke-width="null" stroke="null" fill="#eac700"/>
  <ellipse ry="3.990047" rx="3.667869" id="svg_11" cy="9.110355" cx="15.529125" stroke-opacity="null" stroke-width="null" stroke="null" fill="#eac700"/>
  <ellipse ry="0.817836" rx="1.016099" id="svg_12" cy="2.815499" cx="16.148697" stroke-opacity="null" stroke-width="null" stroke="null" fill="#eac700"/>
  <ellipse ry="3.915698" rx="2.205678" id="svg_13" cy="7.648164" cx="17.53654" stroke-opacity="null" stroke-width="null" stroke="null" fill="#eac700"/>
  <ellipse ry="1.363059" rx="1.53654" id="svg_14" cy="10.94429" cx="19.048296" stroke-opacity="null" stroke-width="null" stroke="null" fill="#eac700"/>
  <ellipse ry="1.610888" rx="2.280027" id="svg_15" cy="16.396527" cx="7.796861" stroke-opacity="null" stroke-width="null" stroke="null" fill="#eac700"/>
  <ellipse ry="2.800467" rx="2.379158" id="svg_16" cy="20.60962" cx="9.630795" stroke-opacity="null" stroke-width="null" stroke="null" fill="#eac700"/>
  <ellipse stroke="null" ry="6.666598" rx="2.329593" id="svg_17" cy="22.245287" cx="9.135137" stroke-opacity="null" stroke-width="null" fill="#eac700"/>
  <ellipse ry="2.453507" rx="4.485704" id="svg_18" cy="17.387843" cx="21.799198" stroke-opacity="null" stroke-width="null" stroke="null" fill="#eac700"/>
  <ellipse ry="2.973948" rx="4.36179" id="svg_19" cy="24.748364" cx="19.841349" stroke-opacity="null" stroke-width="null" stroke="null" fill="#eac700"/>
  <ellipse ry="2.577421" rx="3.444823" id="svg_20" cy="24.897061" cx="11.836473" stroke-opacity="null" stroke-width="null" stroke="null" fill="#eac700"/>
  <ellipse ry="1.833934" rx="2.552638" id="svg_21" cy="28.019706" cx="9.358183" stroke-opacity="null" stroke-width="null" stroke="null" fill="#eac700"/>
  <ellipse ry="1.586105" rx="2.230461" id="svg_22" cy="26.780561" cx="22.517902" stroke-opacity="null" stroke-width="null" stroke="null" fill="#eac700"/>
  <ellipse ry="0.966533" rx="1.586105" id="svg_23" cy="28.540147" cx="24.153573" stroke-opacity="null" stroke-width="null" stroke="null" fill="#eac700"/>
  <ellipse ry="1.933066" rx="2.081763" id="svg_24" cy="24.153574" cx="14.091717" stroke-opacity="null" stroke-width="null" stroke="null" fill="#eac700"/>
  <ellipse ry="0.966533" rx="1.610888" id="svg_25" cy="22.790515" cx="22.393988" stroke-opacity="null" stroke-width="null" stroke="null" fill="#eac700"/>
  <ellipse ry="2.056981" rx="2.850033" id="svg_26" cy="18.032198" cx="17.189579" stroke-opacity="null" stroke-width="null" stroke="null" fill="#eac700"/>
 </g>
</svg>